<svg width="31" height="33" viewBox="0 0 40 43" fill="none" xmlns="http://www.w3.org/2000/svg">
<g clip-path="url(#clip0)">
<path d="M22.4445 37.1061L20.5156 38.8543C19.6989 39.5945 18.41 39.5612 17.6411 38.7799L1.56407 22.6272C0.786697 21.8457 0.818518 20.6155 1.63504 19.8833L18.5258 4.57518C19.3425 3.83497 20.6314 3.86831 21.4003 4.64953L23.2362 6.49506C24.0219 7.28481 23.9725 8.53893 23.1305 9.27038L12.6726 18.2979L37.0422 18.9282C38.1699 18.9574 39.0548 19.8469 39.027 20.9234L38.96 23.5134C38.9321 24.5899 38.0024 25.4325 36.8747 25.4033L12.5051 24.773L22.4824 34.329C23.2939 35.1033 23.2784 36.3583 22.4445 37.1061Z" fill="#28142F"/>
</g>
<defs>
<clipPath id="clip0">
<rect width="38" height="41.4545" fill="white" transform="translate(1.54199 0.515625) rotate(1.48163)"/>
</clipPath>
</defs>
</svg>
